<?xml version="1.0" encoding="utf-8"?>
<!-- Generator: Adobe Illustrator 16.0.0, SVG Export Plug-In . SVG Version: 6.00 Build 0)  -->
<!DOCTYPE svg PUBLIC "-//W3C//DTD SVG 1.1//EN" "http://www.w3.org/Graphics/SVG/1.1/DTD/svg11.dtd">
<svg version="1.1" id="Layer_1" xmlns="http://www.w3.org/2000/svg" xmlns:xlink="http://www.w3.org/1999/xlink" x="0px" y="0px"
	 width="28.35px" height="85.04px" viewBox="0 0 28.35 85.04" enable-background="new 0 0 28.35 85.04" xml:space="preserve">
<g>
	<title>Layer 1</title>
	<path id="svg_2" fill="#D7DF23" stroke="#010101" stroke-miterlimit="10" d="M14.21,82.072c-0.97-4.762-2.68-8.725-4.752-12.396
		c-1.536-2.725-3.316-5.238-4.963-7.881c-0.55-0.881-1.024-1.813-1.553-2.729c-1.056-1.83-1.913-3.951-1.858-6.703
		c0.054-2.689,0.831-4.848,1.953-6.611c1.844-2.9,4.934-5.279,9.08-5.904c3.39-0.511,6.567,0.353,8.821,1.671
		c1.842,1.076,3.268,2.516,4.352,4.209c1.132,1.77,1.911,3.861,1.976,6.588c0.034,1.396-0.194,2.689-0.518,3.764
		c-0.325,1.086-0.85,1.994-1.317,2.963c-0.91,1.895-2.053,3.627-3.198,5.363C18.817,69.576,15.613,74.848,14.21,82.072z"/>
	<text transform="matrix(1 0 0 1 1.7559 56.3027)" fill="#010101" font-family="'ArialRoundedMTBold'" font-size="10.5">UWE</text>
</g>
</svg>
